# Blender v3.3.1 OBJ File: 'Hump.blend'
# www.blender.org
mtllib Hump.mtl
o Cube
v 6.000000 1.000000 -1.000000
v 6.000000 -1.000000 -1.000000
v 6.000000 1.000000 1.000000
v 6.000000 -1.000000 1.000000
v -1.000000 1.000000 -1.000000
v -1.000000 -1.000000 -1.000000
v -1.000000 1.000000 1.000000
v -1.000000 -1.000000 1.000000
v 3.666667 -1.000000 -1.000000
v 1.333333 -1.000000 -1.000000
v 3.666667 1.000000 1.000000
v 1.333333 1.000000 1.000000
v 1.333333 -1.000000 1.000000
v 3.666667 -1.000000 1.000000
v 1.333333 1.000000 -1.000000
v 3.666667 1.000000 -1.000000
v 3.666667 3.000000 1.000000
v 1.333333 3.000000 1.000000
v 1.333333 3.000000 -1.000000
v 3.666667 3.000000 -1.000000
vt 0.875000 0.500000
vt 0.791667 0.750000
vt 0.791667 0.500000
vt 0.625000 0.916667
vt 0.375000 1.000000
vt 0.375000 0.916667
vt 0.625000 0.000000
vt 0.375000 0.250000
vt 0.375000 0.000000
vt 0.375000 0.500000
vt 0.291667 0.750000
vt 0.291667 0.500000
vt 0.625000 0.500000
vt 0.375000 0.750000
vt 0.625000 0.416667
vt 0.375000 0.416667
vt 0.625000 0.250000
vt 0.375000 0.333333
vt 0.625000 0.333333
vt 0.208333 0.500000
vt 0.125000 0.750000
vt 0.125000 0.500000
vt 0.208333 0.750000
vt 0.625000 0.750000
vt 0.375000 0.833333
vt 0.625000 0.833333
vt 0.708333 0.500000
vt 0.625000 0.916667
vt 0.791667 0.500000
vt 0.708333 0.750000
vt 0.708333 0.500000
vt 0.708333 0.750000
vt 0.625000 0.416667
vt 0.875000 0.750000
vt 0.625000 1.000000
vt 0.625000 0.833333
vt 0.791667 0.750000
vt 0.625000 0.333333
vn 0.0000 1.0000 0.0000
vn 0.0000 0.0000 1.0000
vn -1.0000 0.0000 0.0000
vn 0.0000 -1.0000 0.0000
vn 1.0000 0.0000 0.0000
vn 0.0000 0.0000 -1.0000
usemtl Material
s off
f 5/1/1 12/2/1 15/3/1
f 12/4/2 8/5/2 13/6/2
f 7/7/3 6/8/3 8/9/3
f 2/10/4 14/11/4 9/12/4
f 1/13/5 4/14/5 2/10/5
f 16/15/6 2/10/6 9/16/6
f 5/17/6 10/18/6 6/8/6
f 15/19/6 9/16/6 10/18/6
f 10/20/4 8/21/4 6/22/4
f 9/12/4 13/23/4 10/20/4
f 3/24/2 14/25/2 4/14/2
f 11/26/2 13/6/2 14/25/2
f 16/27/1 3/24/1 1/13/1
f 11/26/2 18/28/2 12/4/2
f 19/29/1 17/30/1 20/31/1
f 16/27/5 17/30/5 11/32/5
f 12/2/3 19/29/3 15/3/3
f 15/19/6 20/33/6 16/15/6
f 5/1/1 7/34/1 12/2/1
f 12/4/2 7/35/2 8/5/2
f 7/7/3 5/17/3 6/8/3
f 2/10/4 4/14/4 14/11/4
f 1/13/5 3/24/5 4/14/5
f 16/15/6 1/13/6 2/10/6
f 5/17/6 15/19/6 10/18/6
f 15/19/6 16/15/6 9/16/6
f 10/20/4 13/23/4 8/21/4
f 9/12/4 14/11/4 13/23/4
f 3/24/2 11/26/2 14/25/2
f 11/26/2 12/4/2 13/6/2
f 16/27/1 11/32/1 3/24/1
f 11/26/2 17/36/2 18/28/2
f 19/29/1 18/37/1 17/30/1
f 16/27/5 20/31/5 17/30/5
f 12/2/3 18/37/3 19/29/3
f 15/19/6 19/38/6 20/33/6
o CollisionBox.001_CollisionBox.002
v -1.000000 -1.000000 1.000000
v -1.000000 1.000000 1.000000
v -1.000000 -1.000000 -1.000000
v -1.000000 1.000000 -1.000000
v 6.000000 -1.000000 1.000000
v 6.000000 1.000000 1.000000
v 6.000000 -1.000000 -1.000000
v 6.000000 1.000000 -1.000000
vt 0.625000 0.000000
vt 0.375000 0.250000
vt 0.375000 0.000000
vt 0.625000 0.250000
vt 0.375000 0.500000
vt 0.625000 0.500000
vt 0.375000 0.750000
vt 0.625000 0.750000
vt 0.375000 1.000000
vt 0.125000 0.750000
vt 0.125000 0.500000
vt 0.875000 0.500000
vt 0.625000 1.000000
vt 0.875000 0.750000
vn -1.0000 0.0000 0.0000
vn 0.0000 0.0000 -1.0000
vn 1.0000 0.0000 0.0000
vn 0.0000 0.0000 1.0000
vn 0.0000 -1.0000 0.0000
vn 0.0000 1.0000 0.0000
usemtl None
s off
f 22/39/7 23/40/7 21/41/7
f 24/42/8 27/43/8 23/40/8
f 28/44/9 25/45/9 27/43/9
f 26/46/10 21/47/10 25/45/10
f 27/43/11 21/48/11 23/49/11
f 24/50/12 26/46/12 28/44/12
f 22/39/7 24/42/7 23/40/7
f 24/42/8 28/44/8 27/43/8
f 28/44/9 26/46/9 25/45/9
f 26/46/10 22/51/10 21/47/10
f 27/43/11 25/45/11 21/48/11
f 24/50/12 22/52/12 26/46/12
o CollisionBox
v 1.267738 1.000000 1.000000
v 1.267738 3.000000 1.000000
v 1.267738 1.000000 -1.000000
v 1.267738 3.000000 -1.000000
v 3.683239 1.000000 1.000000
v 3.683239 3.000000 1.000000
v 3.683239 1.000000 -1.000000
v 3.683239 3.000000 -1.000000
vt 0.625000 0.000000
vt 0.375000 0.250000
vt 0.375000 0.000000
vt 0.625000 0.250000
vt 0.375000 0.500000
vt 0.625000 0.500000
vt 0.375000 0.750000
vt 0.625000 0.750000
vt 0.375000 1.000000
vt 0.125000 0.750000
vt 0.125000 0.500000
vt 0.875000 0.500000
vt 0.625000 1.000000
vt 0.875000 0.750000
vn -1.0000 0.0000 0.0000
vn 0.0000 0.0000 -1.0000
vn 1.0000 0.0000 0.0000
vn 0.0000 0.0000 1.0000
vn 0.0000 -1.0000 0.0000
vn 0.0000 1.0000 0.0000
usemtl None
s off
f 30/53/13 31/54/13 29/55/13
f 32/56/14 35/57/14 31/54/14
f 36/58/15 33/59/15 35/57/15
f 34/60/16 29/61/16 33/59/16
f 35/57/17 29/62/17 31/63/17
f 32/64/18 34/60/18 36/58/18
f 30/53/13 32/56/13 31/54/13
f 32/56/14 36/58/14 35/57/14
f 36/58/15 34/60/15 33/59/15
f 34/60/16 30/65/16 29/61/16
f 35/57/17 33/59/17 29/62/17
f 32/64/18 30/66/18 34/60/18
